HIERARCHY
ROOT Hips
{
	OFFSET 0.00000 0.00000 0.00000
	CHANNELS 6 Xposition Yposition Zposition Zrotation Yrotation Xrotation 
	JOINT LHipJoint
	{
		OFFSET 0 0 0
		CHANNELS 3 Zrotation Yrotation Xrotation
		JOINT LeftHip
		{
			OFFSET 1.36337 -1.57426 1.11036
			CHANNELS 3 Zrotation Yrotation Xrotation
			JOINT LeftKnee
			{
				OFFSET 2.38468 -6.55187 0.00000
				CHANNELS 3 Zrotation Yrotation Xrotation
				JOINT LeftAnkle
				{
					OFFSET 2.37166 -6.51609 0.00000
					CHANNELS 3 Zrotation Yrotation Xrotation
					JOINT LeftToe
					{
						OFFSET 0.29078 -0.79891 2.01393
						CHANNELS 3 Zrotation Yrotation Xrotation
						End Site
						{
							OFFSET 0.00000 -0.00000 1.07924
						}
					}
				}
			}
		}
	}
	JOINT RHipJoint
	{
		OFFSET 0 0 0
		CHANNELS 3 Zrotation Yrotation Xrotation
		JOINT RightHip
		{
			OFFSET -1.36349 -1.57426 1.11036
			CHANNELS 3 Zrotation Yrotation Xrotation
			JOINT RightKnee
			{
				OFFSET -2.29562 -6.30717 0.00000
				CHANNELS 3 Zrotation Yrotation Xrotation
				JOINT RightAnkle
				{
					OFFSET -2.40985 -6.62100 0.00000
					CHANNELS 3 Zrotation Yrotation Xrotation
					JOINT RightToe
					{
						OFFSET -0.23197 -0.63733 1.92232
						CHANNELS 3 Zrotation Yrotation Xrotation
						End Site
						{
							OFFSET -0.00000 -0.00000 1.01562
						}
					}
				}
			}
		}
	}
	JOINT lowerback
	{
		OFFSET 0 0 0
		CHANNELS 3 Zrotation Yrotation Xrotation
		JOINT Chest
		{
			OFFSET -0.08565 2.03602 -0.24562
			CHANNELS 3 Zrotation Yrotation Xrotation
			JOINT Chest2
			{
				OFFSET -0.00036 2.05693 0.00216
				CHANNELS 3 Zrotation Yrotation Xrotation
				JOINT lowerneck
				{
					OFFSET 0 0 0
					CHANNELS 3 Zrotation Yrotation Xrotation
					JOINT Neck
					{
						OFFSET -0.03664 1.69515 0.31789
						CHANNELS 3 Zrotation Yrotation Xrotation
						JOINT Head
						{
							OFFSET 0.00932 1.70181 -0.46013
							CHANNELS 3 Zrotation Yrotation Xrotation
							End Site
							{
								OFFSET 0.01243 1.77620 -0.19377
							}
						}
					}
				}
				JOINT LeftCollar
				{
					OFFSET 0 0 0
					CHANNELS 3 Zrotation Yrotation Xrotation
					JOINT LeftShoulder
					{
						OFFSET 3.74344 0.81315 -0.36647
CHANNELS 3 Zrotation Xrotation Yrotation
						JOINT LeftElbow
						{
OFFSET 0 -4.971850 -0.000000
CHANNELS 3 Zrotation Xrotation Yrotation
							JOINT LeftWrist
							{
OFFSET 0 -3.358110 0.000000
CHANNELS 3 Zrotation Xrotation Yrotation
								JOINT lhand
								{
									OFFSET 0 0 0
CHANNELS 3 Zrotation Xrotation Yrotation
									JOINT LFingers
									{
OFFSET 0 -0.622780 0.000000
CHANNELS 3 Zrotation Xrotation Yrotation
										End Site
										{
OFFSET 0 -0.502100 0.000000
										}
									}
								}
								JOINT LThumb
								{
OFFSET 0 0.000000 0.000000
CHANNELS 3 Zrotation Xrotation Yrotation
									End Site
									{
OFFSET 0 -0.509760 0.509760
									}
								}
							}
						}
					}
				}
				JOINT RightCollar
				{
					OFFSET 0 0 0
					CHANNELS 3 Zrotation Yrotation Xrotation
					JOINT RightShoulder
					{
						OFFSET -3.75385 0.50666 -0.06525
CHANNELS 3 Zrotation Xrotation Yrotation
						JOINT RightElbow
						{
OFFSET 0 -4.964930 -0.000000
CHANNELS 3 Zrotation Xrotation Yrotation
							JOINT RightWrist
							{
OFFSET 0 -3.349290 0.000000
CHANNELS 3 Zrotation Xrotation Yrotation
								JOINT rhand
								{
									OFFSET 0 0 0
CHANNELS 3 Zrotation Xrotation Yrotation
									JOINT RFingers
									{
OFFSET 0 -0.638040 0.000000
CHANNELS 3 Zrotation Xrotation Yrotation
										End Site
										{
OFFSET 0 -0.514410 0.000000
										}
									}
								}
								JOINT RThumb
								{
OFFSET 0 0.000000 0.000000
CHANNELS 3 Zrotation Xrotation Yrotation
									End Site
									{
OFFSET 0 -0.522260 0.522260
									}
								}
							}
						}
					}
				}
			}
		}
	}
}
MOTION
Frames: 11
Frame Time: 0.008333333333333333
31.605914 15.474860 4.247358 835.473623 81.837596 835.661528 0.000000 0.000000 0.000000 -12.339220 -5.133822 -40.619225 3.169493 10.959344 32.148584 -0.056524 4.607310 -3.506558 0.039604 -1.277432 -3.512651 0.000000 0.000000 0.000000 15.254138 -0.012419 -22.757253 -9.175528 -16.919322 56.695091 -3.240734 -4.672950 -35.879353 -0.232245 -3.100036 8.557419 3.135478 -0.487841 26.996022 0.207097 1.131249 9.901442 -1.929767 1.011766 -3.868940 4.482744 6.683638 -25.907037 -11.025780 12.891327 31.195407 -2.656735 4.481358 16.821606 0.000000 0.000000 0.000000 3.657477 0.760534 -33.044648 15.997175 -25.516814 3.644757 21.665887 -19.823267 12.064492 0.000000 0.000000 0.000000 -7.125000 0.000000 0.000000 -3.855297 17.046639 -2.561753 0.000000 0.000000 0.000000 -14.871564 -10.343440 18.909347 -19.990949 -30.631450 -5.526688 -16.084181 -11.838633 26.771617 0.000000 0.000000 0.000000 7.125000 0.000000 0.000000 15.426942 57.010016 -4.614994
31.930111 15.436036 4.128809 823.737988 82.918417 823.272603 0.000000 0.000000 0.000000 -10.683943 -4.924572 -38.203937 2.157395 9.184632 26.375971 -0.300807 11.408911 2.333503 0.084696 -1.877061 -5.166055 0.000000 0.000000 0.000000 15.501287 0.290122 -20.249108 -9.020084 -16.820591 56.159419 -3.378951 -4.225195 -36.401337 -0.205390 -2.918087 8.050801 3.095631 -0.061674 25.798782 0.231164 1.567668 9.888226 -1.974847 1.212025 -3.289793 4.261106 6.736304 -25.215728 -11.115428 13.247446 31.541854 -2.595846 4.622890 16.871328 0.000000 0.000000 0.000000 3.432404 0.655605 -32.892094 15.990445 -25.507741 3.641861 20.702353 -18.819388 11.733029 0.000000 0.000000 0.000000 -7.125000 0.000000 0.000000 -4.516892 17.485497 -2.960277 0.000000 0.000000 0.000000 -14.599146 -10.572890 19.828492 -20.298501 -31.000076 -5.684450 -16.466917 -12.397018 26.786748 0.000000 0.000000 0.000000 7.125000 0.000000 0.000000 15.038046 57.105480 -4.529605
32.252405 15.386867 3.965432 809.482404 83.683413 808.475270 0.000000 0.000000 0.000000 -9.427174 -4.090712 -36.742095 1.793713 8.422406 24.004560 -0.767077 18.221563 3.898243 0.090072 -1.910733 -5.259726 0.000000 0.000000 0.000000 15.600015 0.859682 -18.023865 -8.925872 -16.759804 55.833463 -3.492201 -4.211033 -36.969088 -0.142970 -2.436151 6.712574 2.947966 0.156051 25.198367 0.205686 1.776782 10.125750 -1.951326 1.322037 -2.731402 4.476877 7.121217 -24.857692 -11.589337 13.986564 31.604569 -2.675690 4.905051 16.987815 0.000000 0.000000 0.000000 3.664107 -0.207014 -33.070845 16.247524 -25.855028 3.753284 21.284195 -19.889306 12.796244 0.000000 0.000000 0.000000 -7.125000 0.000000 0.000000 -4.147837 16.304444 -2.824027 0.000000 0.000000 0.000000 -14.377093 -10.847414 20.991401 -21.192335 -32.051538 -6.151956 -16.609213 -12.914711 26.664921 0.000000 0.000000 0.000000 7.125000 0.000000 0.000000 14.820837 57.016510 -4.430155
32.573433 15.337438 3.763709 797.843316 83.871628 796.417910 0.000000 0.000000 0.000000 -9.394516 -2.150365 -37.247910 2.006790 8.879163 25.418748 -0.632058 18.345279 6.060946 0.256221 -3.253059 -8.984498 0.000000 0.000000 0.000000 15.253348 1.171624 -16.140637 -8.941029 -16.769616 55.886054 -3.594936 -4.329693 -37.529200 -0.056428 -1.528975 4.205761 2.499581 0.276715 25.490111 0.089553 1.852302 10.410201 -1.842849 1.367170 -2.564176 4.457907 7.373462 -24.814725 -12.008817 14.418783 31.048380 -2.738928 5.036417 16.803043 0.000000 0.000000 0.000000 4.117070 -1.306964 -33.397390 16.908241 -26.736615 4.045987 21.668257 -20.373872 11.820934 0.000000 0.000000 0.000000 -7.125000 0.000000 0.000000 -3.844925 17.305786 -2.532666 0.000000 0.000000 0.000000 -14.301346 -10.619775 22.021013 -22.321197 -33.337789 -6.761706 -16.673886 -13.250937 27.029098 0.000000 0.000000 0.000000 7.125000 0.000000 0.000000 14.962686 57.385790 -4.608299
32.911137 15.265401 3.503254 781.639002 84.155819 780.557377 0.000000 0.000000 0.000000 -9.670353 0.590082 -39.574998 2.814233 10.385505 30.236986 0.070092 11.666216 9.181798 0.487500 -4.474713 -12.416637 0.000000 0.000000 0.000000 15.144556 1.583885 -15.190433 -9.099018 -16.871025 56.432013 -3.741359 -4.279579 -38.227077 -0.007089 -0.521358 1.432644 2.244527 0.429743 26.012890 -0.073493 2.012404 10.648032 -1.926898 1.453946 -2.544835 4.503877 7.614677 -25.032783 -12.207608 14.602940 30.216483 -2.761731 5.090853 16.489991 0.000000 0.000000 0.000000 4.822184 -2.581167 -33.586423 17.404162 -27.387333 4.271695 22.456027 -21.889797 12.119938 0.000000 0.000000 0.000000 -7.125000 0.000000 0.000000 -3.307432 16.912221 -2.205964 0.000000 0.000000 0.000000 -14.344001 -10.373923 23.309465 -22.988659 -34.076335 -7.131961 -16.535514 -13.837308 26.592776 0.000000 0.000000 0.000000 7.125000 0.000000 0.000000 14.856447 56.930569 -4.410073
33.266389 15.218999 3.185918 766.267972 83.927526 766.351554 0.000000 0.000000 0.000000 -9.913120 1.825627 -42.137914 3.634441 11.656295 34.527966 -0.003264 8.539642 5.905490 0.282349 -3.415545 -9.438112 0.000000 0.000000 0.000000 14.475074 1.892743 -15.074123 -9.124146 -16.886939 56.518415 -3.855000 -3.670501 -38.539617 -0.002367 0.296767 -0.815241 1.690602 0.659269 26.496086 -0.295790 2.166411 10.663038 -1.909657 1.513099 -2.760166 4.812986 7.923211 -24.934521 -12.963720 14.945559 29.050969 -3.026702 5.202152 16.070567 0.000000 0.000000 0.000000 5.340965 -3.562904 -33.472743 17.825062 -27.932557 4.466992 22.788868 -22.689339 11.959093 0.000000 0.000000 0.000000 -7.125000 0.000000 0.000000 -3.068617 17.052739 -2.036876 0.000000 0.000000 0.000000 -14.319490 -10.262848 23.673486 -22.884550 -33.962262 -7.073716 -16.064525 -13.384804 26.732992 0.000000 0.000000 0.000000 7.125000 0.000000 0.000000 15.425353 56.968085 -4.599071
33.639543 15.202964 2.818590 755.007933 83.947564 756.519109 0.000000 0.000000 0.000000 -10.445040 2.510445 -45.004960 4.588826 12.903332 39.010746 -0.081464 6.536164 1.988555 0.100082 -2.025568 -5.576803 0.000000 0.000000 0.000000 13.580104 2.182089 -14.733221 -8.892243 -16.737871 55.716672 -3.799646 -2.938589 -37.999467 -0.067672 1.676378 -4.612171 1.189207 0.689679 27.510963 -0.402379 2.083753 10.503103 -1.755707 1.447668 -3.431648 4.894688 8.234791 -25.016961 -13.485450 15.352823 28.163718 -3.137936 5.330361 15.796902 0.000000 0.000000 0.000000 5.603667 -4.106073 -33.705958 18.103061 -28.288939 4.597977 23.694435 -23.796124 12.082635 0.000000 0.000000 0.000000 -7.125000 0.000000 0.000000 -2.444071 16.829658 -1.633341 0.000000 0.000000 0.000000 -14.210871 -10.207113 23.242378 -22.292272 -33.305232 -6.745891 -15.766673 -12.874374 26.741398 0.000000 0.000000 0.000000 7.125000 0.000000 0.000000 15.737973 56.914096 -4.674231
34.043990 15.231848 2.429262 747.881781 83.376227 750.763621 0.000000 0.000000 0.000000 -11.386370 2.927857 -47.349295 5.571789 13.999366 43.236292 -0.070411 4.715921 -1.685732 0.033745 -1.182317 -3.250685 0.000000 0.000000 0.000000 11.904384 2.061034 -14.127589 -8.496383 -16.472343 54.331262 -3.578094 -2.154883 -36.622196 -0.131030 2.329595 -6.417587 0.120419 1.041689 28.043925 -0.702250 2.269940 10.716934 -1.539163 1.530759 -3.457819 4.669199 8.329682 -25.294028 -13.453877 15.326203 27.295968 -3.061879 5.305867 15.423248 0.000000 0.000000 0.000000 6.287291 -5.352152 -35.097935 18.265060 -28.495203 4.675022 23.644186 -24.222844 12.228476 0.000000 0.000000 0.000000 -7.125000 0.000000 0.000000 -2.486563 16.677115 -1.669930 0.000000 0.000000 0.000000 -13.713530 -10.550189 22.180526 -21.500515 -32.407790 -6.316160 -16.602004 -11.817558 26.846446 0.000000 0.000000 0.000000 7.125000 0.000000 0.000000 14.931994 57.192386 -4.528180
34.446294 15.290081 2.051695 734.489189 82.536176 738.924578 0.000000 0.000000 0.000000 -11.421411 4.304223 -49.669920 6.405022 14.808940 46.584862 0.006713 2.613096 -4.104485 0.018942 -0.888902 -2.443120 0.000000 0.000000 0.000000 11.324653 2.671606 -13.373596 -7.803013 -15.971577 51.848676 -3.314786 -1.553650 -35.062105 -0.249352 3.208233 -8.859317 -0.269452 1.472533 28.676884 -0.989640 2.660612 10.486969 -1.781508 1.699328 -3.997933 4.782293 8.628141 -24.751714 -13.827275 15.631753 26.300713 -3.150744 5.462565 14.949594 0.000000 0.000000 0.000000 7.183146 -5.770481 -35.828067 18.677202 -29.015590 4.873322 23.647625 -24.219069 11.947638 0.000000 0.000000 0.000000 -7.125000 0.000000 0.000000 -2.469859 16.980381 -1.642565 0.000000 0.000000 0.000000 -12.595905 -10.684832 22.017621 -20.664295 -31.434281 -5.873953 -16.500306 -11.385252 26.897537 0.000000 0.000000 0.000000 7.125000 0.000000 0.000000 15.067435 57.220370 -4.581143
34.881175 15.350726 1.670978 727.747725 81.915263 733.552646 0.000000 0.000000 0.000000 -12.083594 4.828998 -51.134031 7.184372 15.484972 49.567818 0.130810 0.808048 -7.164625 0.022015 -0.958296 -2.634022 0.000000 0.000000 0.000000 10.167922 2.164150 -11.703660 -6.865396 -15.216976 48.362506 -3.033135 -1.102325 -33.398065 -0.347318 3.786843 -10.477726 -0.838274 1.758814 28.561241 -1.229117 2.852242 10.532467 -1.770208 1.782468 -3.897400 4.672662 8.987245 -24.859765 -14.335570 16.238239 25.631350 -3.179542 5.663856 14.810358 0.000000 0.000000 0.000000 7.882923 -6.728979 -36.291517 19.150177 -29.604754 5.104887 24.462761 -25.660537 12.458633 0.000000 0.000000 0.000000 -7.125000 0.000000 0.000000 -1.931881 16.341312 -1.310746 0.000000 0.000000 0.000000 -11.673043 -10.578765 23.108750 -21.064597 -31.903533 -6.084156 -16.454363 -11.832319 26.619474 0.000000 0.000000 0.000000 7.125000 0.000000 0.000000 14.955908 56.939617 -4.443710
35.300237 15.407768 1.329655 720.284569 82.051016 727.367224 0.000000 0.000000 0.000000 -12.183248 4.493758 -52.114361 7.838049 15.998407 51.976548 0.274097 -0.492985 -9.720670 0.003153 0.343725 0.944421 0.000000 0.000000 0.000000 9.659228 1.209426 -9.550694 -5.781065 -14.211028 44.093308 -2.802136 -0.584812 -31.933432 -0.361843 3.862244 -10.689634 -0.832887 1.847278 28.265565 -1.328136 2.946673 10.459674 -1.898707 1.822255 -3.833253 4.920689 9.259017 -24.747381 -15.022568 16.583660 24.737695 -3.396478 5.796126 14.555686 0.000000 0.000000 0.000000 8.793014 -7.578137 -36.914645 20.026026 -30.673183 5.544842 24.047937 -25.775830 11.116530 0.000000 0.000000 0.000000 -7.125000 0.000000 0.000000 -2.148979 17.841893 -1.388130 0.000000 0.000000 0.000000 -10.775073 -9.900087 25.134953 -22.328719 -33.345717 -6.766075 -15.895731 -12.822043 27.269098 0.000000 0.000000 0.000000 7.125000 0.000000 0.000000 15.915474 57.452805 -4.937666
